<svg width="105" height="106" viewBox="0 0 105 106" fill="none" xmlns="http://www.w3.org/2000/svg">
<g clip-path="url(#clip0)">
<path d="M53.8767 25.7198L46.1712 47.0909H26.9076L39.75 25.7198H53.8767Z" fill="#C2DFF6"/>
<path d="M65.4348 92.8862L26.9076 47.091H46.1712L65.4348 92.8862Z" fill="#83D8F4"/>
<path d="M103.962 47.0909H84.6985L76.993 25.7198H90.9591L103.962 47.0909Z" fill="#5AAAE7"/>
<path d="M103.962 47.091L65.4348 92.8862L84.6985 47.091H103.962Z" fill="#1E81CE"/>
<path d="M84.6985 47.091L65.4348 92.8862L46.1712 47.091H84.6985Z" fill="#5AAAE7"/>
<path d="M84.6985 47.0909H46.1712L53.8767 25.7198H76.993L84.6985 47.0909Z" fill="#83D8F4"/>
<path d="M105.157 47.3482L90.2244 26.5044C90.0878 26.3135 89.9083 26.1581 89.7006 26.051C89.4929 25.9439 89.263 25.8882 89.0298 25.8884H30.2224C29.9877 25.8885 29.7564 25.9452 29.5476 26.0536C29.3389 26.162 29.1588 26.3191 29.0223 26.5118L14.2743 47.3556C14.0717 47.6426 13.9763 47.9927 14.005 48.3439C14.0337 48.6951 14.1846 49.0247 14.431 49.2743L58.6749 93.9395C58.9518 94.2184 59.3271 94.375 59.7183 94.375C60.1095 94.375 60.4847 94.2184 60.7617 93.9395L105.005 49.2743C105.253 49.0235 105.404 48.6921 105.432 48.3393C105.459 47.9864 105.362 47.6352 105.157 47.3482ZM72.018 28.8661L79.604 46.7321H39.8325L47.4185 28.8661H72.018ZM30.9819 28.8661H44.209L36.623 46.7321H18.3411L30.9819 28.8661ZM19.0342 49.7098H36.6857L54.3353 85.3452L19.0342 49.7098ZM59.7183 89.5567L39.9818 49.7098H79.4547L59.7183 89.5567ZM65.1013 85.3452L82.7509 49.7098H100.402L65.1013 85.3452ZM82.8135 46.7321L75.2276 28.8661H88.2758L101.075 46.7321H82.8135Z" fill="black"/>
<path d="M89.2141 19.933H93.6385V24.3996C93.6385 24.7944 93.7939 25.1731 94.0705 25.4523C94.347 25.7315 94.7222 25.8884 95.1133 25.8884C95.5044 25.8884 95.8796 25.7315 96.1561 25.4523C96.4327 25.1731 96.5881 24.7944 96.5881 24.3996V19.933H101.012C101.404 19.933 101.779 19.7762 102.055 19.497C102.332 19.2178 102.487 18.8391 102.487 18.4442C102.487 18.0493 102.332 17.6706 102.055 17.3914C101.779 17.1122 101.404 16.9554 101.012 16.9554H96.5881V12.4888C96.5881 12.094 96.4327 11.7153 96.1561 11.4361C95.8796 11.1569 95.5044 11 95.1133 11C94.7222 11 94.347 11.1569 94.0705 11.4361C93.7939 11.7153 93.6385 12.094 93.6385 12.4888V16.9554H89.2141C88.823 16.9554 88.4479 17.1122 88.1713 17.3914C87.8947 17.6706 87.7393 18.0493 87.7393 18.4442C87.7393 18.8391 87.8947 19.2178 88.1713 19.497C88.4479 19.7762 88.823 19.933 89.2141 19.933Z" fill="black"/>
<path d="M31.5128 72.0424H28.7476V69.2508C28.7476 68.856 28.5922 68.4773 28.3156 68.1981C28.0391 67.9189 27.6639 67.762 27.2728 67.762C26.8817 67.762 26.5065 67.9189 26.23 68.1981C25.9534 68.4773 25.798 68.856 25.798 69.2508V72.0424H23.0328C22.6416 72.0424 22.2665 72.1993 21.9899 72.4785C21.7134 72.7577 21.558 73.1364 21.558 73.5312C21.558 73.9261 21.7134 74.3048 21.9899 74.584C22.2665 74.8632 22.6416 75.0201 23.0328 75.0201H25.798V77.9978C25.798 78.3926 25.9534 78.7713 26.23 79.0505C26.5065 79.3297 26.8817 79.4866 27.2728 79.4866C27.6639 79.4866 28.0391 79.3297 28.3156 79.0505C28.5922 78.7713 28.7476 78.3926 28.7476 77.9978V75.0201H31.5128C31.904 75.0201 32.2791 74.8632 32.5557 74.584C32.8323 74.3048 32.9876 73.9261 32.9876 73.5312C32.9876 73.1364 32.8323 72.7577 32.5557 72.4785C32.2791 72.1993 31.904 72.0424 31.5128 72.0424Z" fill="black"/>
</g>
<defs>
<clipPath id="clip0">
<rect width="105" height="106" fill="white"/>
</clipPath>
</defs>
</svg>
