<svg width="31" height="23" viewBox="0 0 31 23" fill="none" xmlns="http://www.w3.org/2000/svg">
<path d="M4.74208 6.10352e-05C4.74124 6.10352e-05 4.7403 6.10352e-05 4.73947 6.10352e-05C4.44627 6.10352e-05 4.17051 0.110667 3.96227 0.311678C3.75174 0.514911 3.63578 0.785518 3.63578 1.0736V17.1711C3.63578 17.7614 4.13397 18.2428 4.74646 18.2444C7.32855 18.2503 11.6546 18.7711 14.6389 21.7935V4.94695C14.6389 4.74684 14.5861 4.55886 14.4864 4.40331C12.037 0.585921 7.33001 0.00591964 4.74208 6.10352e-05Z" fill="#FFFACC"/>
<path d="M27.3643 17.1712V1.07354C27.3643 0.785457 27.2484 0.51485 27.0378 0.311617C26.8296 0.110606 26.5536 0 26.2607 0C26.2598 0 26.2589 0 26.258 0C23.6702 0.00595962 18.9632 0.585961 16.5137 4.40335C16.414 4.5589 16.3613 4.74689 16.3613 4.94699V21.7934C19.3456 18.7711 23.6717 18.2503 26.2537 18.2443C26.8661 18.2428 27.3643 17.7614 27.3643 17.1712Z" fill="#FFFACC"/>
<path d="M29.8909 3.71246H29.0865V17.1712C29.0865 18.6784 27.8176 19.9074 26.2578 19.9111C24.0677 19.9162 20.4564 20.3306 17.8988 22.6731C22.3222 21.625 26.9851 22.3064 29.6426 22.8924C29.9744 22.9656 30.3173 22.89 30.5831 22.6849C30.848 22.4804 31 22.1746 31 21.8465V4.7858C31.0001 4.19398 30.5024 3.71246 29.8909 3.71246Z" fill="#FFFACC"/>
<path d="M1.91345 17.1712V3.71246H1.10911C0.497672 3.71246 0 4.19398 0 4.7858V21.8462C0 22.1744 0.151974 22.4801 0.416884 22.6846C0.682524 22.8896 1.02509 22.9655 1.35743 22.8921C4.01488 22.306 8.67794 21.6247 13.101 22.6728C10.5436 20.3304 6.93233 19.9161 4.74218 19.911C3.18247 19.9074 1.91345 18.6784 1.91345 17.1712Z" fill="#FFFACC"/>
</svg>
