<svg width="34" height="38" viewBox="0 0 34 38" fill="none" xmlns="http://www.w3.org/2000/svg">
<path d="M17.5499 30.7795H15.9077C14.7512 30.7795 13.8114 31.83 13.8114 33.1226V35.6569C13.8114 36.9495 14.7512 38 15.9077 38H17.5499C18.7064 38 19.6463 36.9495 19.6463 35.6569V33.1226C19.6463 31.8261 18.7064 30.7795 17.5499 30.7795Z" fill="#FFFACC"/>
<path d="M5.97086 11.1606L9.00015 11.5824C9.96099 11.7151 10.8729 11.0981 11.2188 10.0867C11.6556 8.80978 12.2635 7.80228 13.0427 7.06813C14.1468 6.02939 15.5199 5.50611 17.1621 5.50611C18.8637 5.50611 20.2193 6.00596 21.2256 7.00175C22.2319 8.00144 22.7315 9.19638 22.7315 10.5983C22.7315 11.6058 22.4485 12.5274 21.8825 13.3631C21.5156 13.8942 20.3871 15.011 18.5038 16.7175C16.617 18.424 15.3627 19.9626 14.7338 21.3293C14.0909 22.7274 13.8673 24.2776 13.8114 25.8319C13.7625 27.1635 14.7129 28.2725 15.9078 28.2725H17.6199C18.71 28.2725 19.6114 27.3392 19.7093 26.1287C19.7791 25.2579 19.9084 24.5979 20.1041 24.1488C20.4325 23.3795 21.2816 22.3642 22.6442 21.099C25.2821 18.6583 27.0012 16.7292 27.8083 15.3078C28.6119 13.8902 29.0172 12.3868 29.0172 10.7975C29.0172 7.92724 27.9236 5.40849 25.7329 3.24509C23.5457 1.0817 20.5967 0 16.8931 0C13.3712 0 10.5306 1.06608 8.36428 3.20214C6.51945 5.02189 5.39788 7.17747 5.00306 9.66499C4.88074 10.3913 5.32447 11.0708 5.97086 11.1606Z" fill="#FFFACC"/>
</svg>
