<svg width="58" height="53" viewBox="0 0 58 53" fill="none" xmlns="http://www.w3.org/2000/svg">
<path d="M29 0C13.05 0 0 11.925 0 26.5C0 41.075 13.05 53 29 53C44.95 53 58 41.075 58 26.5C58 11.925 44.95 0 29 0ZM29 7.95C33.93 7.95 37.7 11.395 37.7 15.9C37.7 20.405 33.93 23.85 29 23.85C24.07 23.85 20.3 20.405 20.3 15.9C20.3 11.395 24.07 7.95 29 7.95ZM29 45.58C21.75 45.58 15.37 42.1351 11.6 37.1C11.6 31.8 23.2 28.885 29 28.885C34.8 28.885 46.4 31.8 46.4 37.1C42.63 42.135 36.25 45.58 29 45.58Z" fill="#FFFACC"/>
</svg>
