<svg width="37" height="33" viewBox="0 0 37 33" fill="none" xmlns="http://www.w3.org/2000/svg">
<g clip-path="url(#clip0)">
<path d="M9.86647 7.15043V4.95047C9.86647 4.64674 9.59036 4.40048 9.24981 4.40048H0.616654C0.276109 4.40048 0 4.64674 0 4.95047V7.15043H9.86647Z" fill="#FFFACC"/>
<path d="M0 8.2504V26.4H9.86647V8.2504H0ZM7.39985 15.4003H2.46662C2.12607 15.4003 1.84996 15.154 1.84996 14.8503V10.4504C1.84996 10.1466 2.12607 9.90036 2.46662 9.90036H7.39985C7.7404 9.90036 8.01651 10.1466 8.01651 10.4504V14.8503C8.01651 15.154 7.7404 15.4003 7.39985 15.4003Z" fill="#FFFACC"/>
<path d="M0 29.7V32.4499C0 32.7537 0.276109 32.9999 0.616654 32.9999H9.24981C9.59036 32.9999 9.86647 32.7537 9.86647 32.4499V29.7H0Z" fill="#FFFACC"/>
<path d="M0 27.5H9.86647V28.6H0V27.5Z" fill="#FFFACC"/>
<path d="M11.0998 27.5H19.1163V28.6H11.0998V27.5Z" fill="#FFFACC"/>
<path d="M19.1163 2.20057V0.5506C19.1163 0.24687 18.8402 0.000610352 18.4996 0.000610352H11.7164C11.3759 0.000610352 11.0998 0.24687 11.0998 0.5506V2.20057H19.1163Z" fill="#FFFACC"/>
<path d="M11.0998 6.05048H19.1163V26.4001H11.0998V6.05048Z" fill="#FFFACC"/>
<path d="M11.0998 29.7V32.4499C11.0998 32.7537 11.3759 32.9999 11.7164 32.9999H18.4996C18.8402 32.9999 19.1163 32.7537 19.1163 32.4499V29.7H11.0998Z" fill="#FFFACC"/>
<path d="M11.0998 3.30057H19.1163V4.95054H11.0998V3.30057Z" fill="#FFFACC"/>
<path d="M20.3348 11.3898L20.6648 12.5196L31.1082 10.0358L30.7779 8.90598L20.3348 11.3898Z" fill="#FFFACC"/>
<path d="M25.4882 29.0088L35.9313 26.525L35.2701 24.264L24.8264 26.7478L25.4882 29.0088Z" fill="#FFFACC"/>
<path d="M34.9587 23.1998L31.4199 11.1L20.9762 13.5838L24.515 25.6836L34.9587 23.1998Z" fill="#FFFACC"/>
<path d="M20.0235 10.3256L30.4663 7.84202L29.581 4.81304C29.4898 4.51979 29.1538 4.34442 28.8226 4.4172L19.5727 6.61716C19.246 6.69692 19.0512 6.99528 19.1346 7.288L20.0235 10.3256Z" fill="#FFFACC"/>
<path d="M36.2427 27.5892L25.7989 30.073L26.5345 32.5874C26.5773 32.7292 26.6815 32.8501 26.8245 32.9231C26.9175 32.9733 27.0241 32.9999 27.1328 32.9999C27.1867 32.9999 27.2406 32.9943 27.293 32.9835L36.5428 30.7836C36.8695 30.7038 37.0644 30.4052 36.981 30.1125L36.2427 27.5892Z" fill="#FFFACC"/>
</g>
<defs>
<clipPath id="clip0">
<rect width="37" height="33" fill="white"/>
</clipPath>
</defs>
</svg>
