<svg width="26" height="30" viewBox="0 0 26 30" fill="none" xmlns="http://www.w3.org/2000/svg">
<path d="M19.78 5.12238C19.78 4.41855 19.5419 3.75598 19.1105 3.25816L16.9562 0.7725C16.5308 0.281543 15.9268 0 15.3258 0H15.1949V5.27344H19.78L19.78 5.12238Z" fill="#FFFACC"/>
<path d="M13.9109 18.1369C14.0567 17.6262 14.3111 17.1507 14.6428 16.7654L19.8003 10.8384V7.03125H14.4479C14.0269 7.03125 13.7109 6.63814 13.7109 6.15234V0H2.28516C1.02507 0 0 1.18277 0 2.63672V27.3633C0 28.8172 1.02507 30 2.28516 30H17.4948C18.7549 30 19.8003 28.8172 19.8003 27.3633V20.8037L18.9632 21.7461C18.624 22.134 18.2268 22.4164 17.779 22.5889L15.357 23.5219L14.988 23.5451C14.378 23.5451 13.8008 23.2027 13.4423 22.6293C13.0867 22.0586 12.99 21.3187 13.1834 20.6501L13.9109 18.1369ZM3.80859 15.8203H11.401C11.8221 15.8203 12.1628 16.2134 12.1628 16.6992C12.1628 17.185 11.8221 17.5781 11.401 17.5781H3.80859C3.38757 17.5781 3.04687 17.185 3.04687 16.6992C3.04687 16.2134 3.38757 15.8203 3.80859 15.8203ZM3.04687 13.1836C3.04687 12.6978 3.38757 12.3047 3.80859 12.3047H11.401C11.8221 12.3047 12.1628 12.6978 12.1628 13.1836C12.1628 13.6694 11.8221 14.0625 11.401 14.0625H3.80859C3.38757 14.0625 3.04687 13.6694 3.04687 13.1836ZM3.04687 20.2148C3.04687 19.729 3.38757 19.3359 3.80859 19.3359H11.401C11.8221 19.3359 12.1628 19.729 12.1628 20.2148C12.1628 20.7006 11.8221 21.0938 11.401 21.0938H3.80859C3.38757 21.0938 3.04687 20.7006 3.04687 20.2148ZM14.4479 24.6094C14.869 24.6094 15.2096 25.0025 15.2096 25.4883C15.2096 25.9741 14.869 26.3672 14.4479 26.3672H9.87761C9.45658 26.3672 9.11589 25.9741 9.11589 25.4883C9.11589 25.0025 9.45658 24.6094 9.87761 24.6094H14.4479ZM3.80859 10.5469C3.38757 10.5469 3.04687 10.1538 3.04687 9.66797C3.04687 9.18217 3.38757 8.78906 3.80859 8.78906H14.4479C14.869 8.78906 15.2096 9.18217 15.2096 9.66797C15.2096 10.1538 14.869 10.5469 14.4479 10.5469H3.80859Z" fill="#FFFACC"/>
<path d="M15.2908 18.9146L14.6281 21.2086C14.5288 21.5522 14.8122 21.8791 15.11 21.7643L17.097 20.9986L15.2908 18.9146Z" fill="#FFFACC"/>
<path d="M21.2067 11.6781L16.1901 17.4665L18.3536 19.9629C19.4875 18.6544 21.6936 16.1085 23.37 14.1742L21.2067 11.6781Z" fill="#FFFACC"/>
<path d="M25.5524 9.15726C25.2846 8.84654 24.8903 8.66888 24.4723 8.66888C24.0542 8.66888 23.66 8.84654 23.3907 9.15814L22.2838 10.4353L24.447 12.9313C25.0529 12.232 25.4718 11.7487 25.5539 11.654C26.149 10.9664 26.1489 9.84644 25.5524 9.15726Z" fill="#FFFACC"/>
<path d="M25.5539 11.6534C25.554 11.6534 25.554 11.6533 25.554 11.6533C25.5562 11.6511 25.5572 11.6502 25.559 11.6484C25.5572 11.6502 25.5562 11.6512 25.5539 11.6534Z" fill="#FFFACC"/>
<path d="M25.559 11.6498C25.5616 11.6466 25.5646 11.6428 25.5661 11.6409C25.5645 11.6429 25.5616 11.6466 25.559 11.6498Z" fill="#FFFACC"/>
<path d="M25.5651 11.6419C25.5705 11.6351 25.5706 11.635 25.5651 11.6419V11.6419Z" fill="#FFFACC"/>
</svg>
