<svg width="71" height="79" viewBox="0 0 71 79" fill="none" xmlns="http://www.w3.org/2000/svg">
<path d="M44.776 13.6472C47.1379 13.6472 49.0526 11.6788 49.0526 9.25071C49.0526 6.82261 47.1379 4.85425 44.776 4.85425C42.4141 4.85425 40.4993 6.82261 40.4993 9.25071C40.4993 11.6788 42.4141 13.6472 44.776 13.6472Z" fill="#FFFACC"/>
<path d="M53.3306 7.50283C55.2204 7.50283 56.7524 5.9279 56.7524 3.98512C56.7524 2.04234 55.2204 0.467407 53.3306 0.467407C51.4408 0.467407 49.9088 2.04234 49.9088 3.98512C49.9088 5.9279 51.4408 7.50283 53.3306 7.50283Z" fill="#FFFACC"/>
<path d="M67.7021 60.4834L49.9088 31.2358V22.4524H55.0415V16.2971H25.9572V22.4524H31.0899V31.2358L13.2966 60.4834C12.6442 61.7267 12.2711 63.1483 12.2711 64.6623C12.2711 69.5185 16.1005 73.4565 20.8257 73.4565H60.1743C64.8982 73.4565 68.7289 69.5199 68.7289 64.6623C68.7289 63.1483 68.3558 61.7267 67.7021 60.4834ZM26.9178 49.7018L37.0775 33.0015V22.4511H43.9212V33.0015L54.0809 49.7018H26.9178Z" fill="#FFFACC"/>
</svg>
