<svg width="37" height="35" viewBox="0 0 37 35" fill="none" xmlns="http://www.w3.org/2000/svg">
<path d="M36.9469 13.0402C36.8194 12.6584 36.4803 12.3801 36.072 12.3224L24.6018 10.7007L19.472 0.58788C19.2895 0.227882 18.9126 0 18.5001 0C18.0874 0 17.7106 0.227882 17.528 0.58788L12.398 10.7007L0.928094 12.3224C0.519867 12.3801 0.180582 12.6584 0.0531055 13.0402C-0.0744428 13.422 0.0319317 13.8412 0.327425 14.1214L8.62696 21.9931L6.66799 33.1083C6.59818 33.504 6.7654 33.9038 7.09919 34.1398C7.28802 34.2733 7.51168 34.3412 7.73643 34.3412C7.909 34.3412 8.08215 34.3012 8.2407 34.22L18.5 28.9721L28.7589 34.22C29.1242 34.4068 29.5666 34.3757 29.9004 34.1397C30.2342 33.9038 30.4015 33.5038 30.3318 33.1081L28.3722 21.9931L36.6726 14.1213C36.968 13.8412 37.0745 13.422 36.9469 13.0402Z" fill="#FFFACC"/>
</svg>
