<svg width="48" height="30" viewBox="0 0 48 30" fill="none" xmlns="http://www.w3.org/2000/svg">
<path d="M41.7359 23.309C41.6923 23.2163 41.6518 23.1394 41.6141 23.0777C40.9908 21.9674 39.7997 20.6045 38.0414 18.9888L38.0042 18.9518L37.9856 18.9336L37.9668 18.915H37.948C37.15 18.1627 36.6447 17.6568 36.433 17.3978C36.0458 16.9044 35.9591 16.405 36.1707 15.899C36.3202 15.5166 36.8818 14.7092 37.8542 13.4757C38.3657 12.8219 38.7708 12.2979 39.0699 11.9032C41.2274 9.06626 42.1628 7.25344 41.8759 6.46399L41.7644 6.2795C41.6895 6.16844 41.4963 6.06683 41.1849 5.97417C40.8727 5.8817 40.4738 5.86641 39.9874 5.92803L34.6004 5.96484C34.5131 5.93425 34.3885 5.9371 34.2261 5.97417C34.064 6.01123 33.9829 6.02983 33.9829 6.02983L33.8891 6.07616L33.8147 6.13182C33.7523 6.16863 33.6837 6.23337 33.6088 6.3259C33.5343 6.41811 33.472 6.52632 33.4222 6.64964C32.8357 8.14203 32.1689 9.52957 31.4205 10.8122C30.9591 11.577 30.5353 12.2399 30.1483 12.8011C29.7619 13.3621 29.4376 13.7755 29.1759 14.0404C28.9139 14.3057 28.6774 14.5181 28.465 14.6787C28.2529 14.8392 28.091 14.9071 27.9789 14.8823C27.8665 14.8574 27.7607 14.8328 27.6606 14.8082C27.4861 14.6971 27.3458 14.5461 27.2399 14.3549C27.1337 14.1638 27.0621 13.9232 27.0247 13.6333C26.9875 13.3433 26.9655 13.0938 26.9592 12.884C26.9534 12.6745 26.9561 12.3782 26.9687 11.9959C26.9817 11.6134 26.9875 11.3546 26.9875 11.2189C26.9875 10.7501 26.9967 10.2414 27.0153 9.69254C27.0342 9.14369 27.0494 8.70883 27.0622 8.38846C27.0749 8.06777 27.0808 7.72848 27.0808 7.37079C27.0808 7.01309 27.0588 6.73258 27.0153 6.52898C26.9723 6.32564 26.9063 6.12826 26.8194 5.93691C26.7319 5.74575 26.6039 5.59788 26.4359 5.4929C26.2676 5.38806 26.0584 5.30486 25.8093 5.24304C25.1483 5.0951 24.3067 5.01507 23.2839 5.00263C20.9645 4.97801 19.4742 5.12614 18.8133 5.44683C18.5515 5.58233 18.3145 5.76746 18.1026 6.00164C17.8781 6.27309 17.8468 6.42122 18.0088 6.44558C18.7572 6.55645 19.2869 6.82168 19.5987 7.24099L19.7111 7.46319C19.7985 7.6235 19.8858 7.90732 19.9731 8.31426C20.0603 8.7212 20.1166 9.17136 20.1413 9.66449C20.2036 10.565 20.2036 11.3359 20.1413 11.9771C20.0789 12.6186 20.0199 13.118 19.9637 13.4757C19.9074 13.8334 19.8233 14.1233 19.7111 14.3452C19.5987 14.5672 19.524 14.7029 19.4865 14.7521C19.4491 14.8014 19.4179 14.8324 19.3931 14.8446C19.2311 14.906 19.0625 14.9373 18.888 14.9373C18.7133 14.9373 18.5014 14.8509 18.252 14.6781C18.0028 14.5054 17.744 14.2681 17.4759 13.9659C17.2077 13.6636 16.9053 13.2411 16.5685 12.6985C16.2319 12.1559 15.8827 11.5146 15.5211 10.7746L15.2219 10.2379C15.0348 9.89264 14.7793 9.38993 14.4551 8.73021C14.1306 8.07023 13.8439 7.43183 13.5946 6.81513C13.4949 6.55613 13.3452 6.35895 13.1457 6.22326L13.0521 6.16759C12.9899 6.11835 12.8899 6.06605 12.7529 6.01033C12.6156 5.95466 12.4724 5.91475 12.3226 5.89019L7.19737 5.92699C6.67364 5.92699 6.31828 6.04435 6.13116 6.27872L6.05628 6.3896C6.01887 6.45135 6 6.54997 6 6.68573C6 6.82142 6.03741 6.98795 6.11229 7.18514C6.86049 8.92435 7.67413 10.6017 8.55323 12.2174C9.43233 13.8331 10.1962 15.1346 10.8445 16.1207C11.4929 17.1075 12.1539 18.0389 12.8273 18.9143C13.5007 19.7901 13.9465 20.3513 14.1646 20.5979C14.383 20.8449 14.5545 21.0296 14.6792 21.1529L15.1469 21.5968C15.4462 21.8929 15.8857 22.2475 16.4656 22.6606C17.0456 23.0739 17.6877 23.4809 18.3922 23.882C19.0969 24.2826 19.9167 24.6094 20.8521 24.8622C21.7874 25.1152 22.6976 25.2168 23.5831 25.1678H25.7343C26.1705 25.1305 26.5011 24.9948 26.7257 24.7606L26.8001 24.6679C26.8502 24.5943 26.897 24.4799 26.9403 24.326C26.984 24.1719 27.0058 24.002 27.0058 23.8173C26.993 23.287 27.0338 22.8091 27.1271 22.3837C27.2204 21.9583 27.3266 21.6376 27.4455 21.4217C27.5642 21.2059 27.6983 21.0238 27.8475 20.8762C27.997 20.7282 28.1035 20.6386 28.166 20.6078C28.2281 20.5767 28.2777 20.5557 28.3151 20.5431C28.6144 20.4444 28.9666 20.5399 29.3723 20.83C29.7776 21.1199 30.1578 21.4778 30.5135 21.9031C30.8689 22.3289 31.2959 22.8065 31.7946 23.3367C32.2937 23.8672 32.73 24.2615 33.104 24.5209L33.4779 24.7429C33.7277 24.891 34.0519 25.0267 34.451 25.15C34.8494 25.2733 35.1985 25.3041 35.4983 25.2425L40.2866 25.1686C40.7603 25.1686 41.1288 25.0911 41.3902 24.9372C41.6521 24.783 41.8077 24.6132 41.8579 24.4284C41.908 24.2435 41.9106 24.0337 41.8674 23.7991C41.8231 23.5651 41.7794 23.4015 41.7359 23.309Z" fill="#FFFACC"/>
</svg>
