<svg width="247" height="226" viewBox="0 0 247 226" fill="none" xmlns="http://www.w3.org/2000/svg">
<g clip-path="url(#clip0)">
<path d="M154.179 125.315C154.297 125.343 154.422 125.366 154.54 125.394C161.042 126.833 167.09 129.336 172.46 132.68C186.999 141.735 196.547 157.005 196.547 174.307V222.588H167.307H79.6872H50.4536V174.307C50.4536 157.005 59.9951 141.735 74.5342 132.68C79.9048 129.336 85.9529 126.833 92.4548 125.394C92.5729 125.366 92.6972 125.343 92.8153 125.315" fill="#665A52"/>
<path d="M73.4165 86.5945C82.9911 86.5945 90.7528 79.4927 90.7528 70.7322C90.7528 61.9717 82.9911 54.8698 73.4165 54.8698C63.842 54.8698 56.0803 61.9717 56.0803 70.7322C56.0803 79.4927 63.842 86.5945 73.4165 86.5945Z" fill="#FFD3AE"/>
<path d="M173.577 86.5945C183.152 86.5945 190.914 79.4927 190.914 70.7322C190.914 61.9717 183.152 54.8698 173.577 54.8698C164.003 54.8698 156.241 61.9717 156.241 70.7322C156.241 79.4927 164.003 86.5945 173.577 86.5945Z" fill="#FFD3AE"/>
<path d="M73.4166 90.007C61.8008 90.007 52.3507 81.3604 52.3507 70.7322C52.3507 60.104 61.8008 51.4574 73.4166 51.4574C85.0323 51.4574 94.4824 60.104 94.4824 70.7322C94.4824 81.3604 85.0323 90.007 73.4166 90.007ZM73.4166 58.2823C65.9139 58.2823 59.8098 63.8674 59.8098 70.7322C59.8098 77.597 65.9139 83.1821 73.4166 83.1821C80.9192 83.1821 87.0233 77.597 87.0233 70.7322C87.0233 63.8674 80.9198 58.2823 73.4166 58.2823Z" fill="#333333"/>
<path d="M173.577 90.007C161.961 90.007 152.511 81.3604 152.511 70.7322C152.511 60.104 161.961 51.4574 173.577 51.4574C185.193 51.4574 194.643 60.104 194.643 70.7322C194.643 81.3604 185.193 90.007 173.577 90.007ZM173.577 58.2823C166.075 58.2823 159.97 63.8674 159.97 70.7322C159.97 77.597 166.074 83.1821 173.577 83.1821C181.081 83.1821 187.184 77.597 187.184 70.7322C187.184 63.8674 181.081 58.2823 173.577 58.2823Z" fill="#333333"/>
<path d="M154.179 125.315C145.415 130.712 134.86 133.863 123.497 133.863C112.134 133.863 101.58 130.712 92.8153 125.315C92.6972 125.241 92.5729 125.167 92.4548 125.087C77.9841 116.021 68.4861 100.79 68.4861 83.529V70.7322V41.4417C68.4861 13.6431 178.508 13.6431 178.508 41.4417V70.7322V83.529C178.508 100.79 169.01 116.021 154.54 125.087C154.422 125.167 154.297 125.241 154.179 125.315Z" fill="#FFD3AE"/>
<path d="M79.6872 152.063V222.588H50.4536V174.307C50.4536 157.005 59.9951 141.734 74.5342 132.68C77.8286 138.481 79.6872 145.073 79.6872 152.063Z" fill="#665A52"/>
<path d="M196.547 174.307V222.588H167.307V152.063C167.307 145.073 169.166 138.481 172.46 132.68C186.999 141.734 196.547 157.005 196.547 174.307Z" fill="#665A52"/>
<path d="M123.497 137.278C111.762 137.278 100.432 134.121 90.733 128.149L90.6292 128.085C90.5204 128.017 90.411 127.949 90.3034 127.878C74.3055 117.836 64.7565 101.262 64.7565 83.5318V41.4446C64.7565 41.3029 64.7565 41.1619 64.7596 41.0203C64.7466 40.6039 64.8143 40.1882 64.9629 39.7901L72.0217 41.9957C72.2499 41.3837 72.2797 40.7325 72.1075 40.1108C72.1945 40.4242 72.2318 40.7473 72.2194 41.0709C72.2144 41.1954 72.2157 41.3206 72.2157 41.4451V83.5324C72.2157 99.0256 80.5693 113.509 94.562 122.275C94.5974 122.297 94.6322 122.32 94.6664 122.343C94.7087 122.372 94.7534 122.398 94.797 122.425L94.9207 122.502C103.361 127.7 113.251 130.455 123.497 130.455C133.744 130.455 143.634 127.7 152.096 122.488L152.194 122.427C152.237 122.401 152.282 122.374 152.324 122.346C152.358 122.323 152.398 122.297 152.432 122.275C166.425 113.509 174.779 99.0262 174.779 83.5329V41.4457C174.779 41.3228 174.779 41.2 174.774 41.0771C174.761 40.7365 174.803 40.3958 174.899 40.0665C174.71 40.7097 174.743 41.4116 174.99 42.0434L182.014 39.7446C182.176 40.1598 182.25 40.5937 182.235 41.0282C182.237 41.1676 182.238 41.3063 182.238 41.4457V83.5329C182.238 101.262 172.688 117.836 156.692 127.878C156.582 127.95 156.47 128.021 156.358 128.089L156.28 128.137C146.563 134.121 135.233 137.278 123.497 137.278Z" fill="#333333"/>
<path d="M130.956 110.166H116.038C113.979 110.166 112.309 108.638 112.309 106.753C112.309 104.868 113.979 103.341 116.038 103.341H130.956C133.016 103.341 134.686 104.868 134.686 106.753C134.686 108.638 133.016 110.166 130.956 110.166Z" fill="#333333"/>
<path d="M126.104 56.8747H94.3681C92.3087 56.8747 90.6385 55.347 90.6385 53.4622C90.6385 51.5774 92.3087 50.0497 94.3681 50.0497H126.104C128.164 50.0497 129.834 51.5774 129.834 53.4622C129.834 55.347 128.164 56.8747 126.104 56.8747Z" fill="#333333"/>
<path d="M152.626 56.8747H140.194C138.135 56.8747 136.464 55.347 136.464 53.4622C136.464 51.5774 138.135 50.0497 140.194 50.0497H152.626C154.685 50.0497 156.355 51.5774 156.355 53.4622C156.355 55.347 154.686 56.8747 152.626 56.8747Z" fill="#333333"/>
<path d="M126.848 121.143H120.147C118.088 121.143 116.417 119.615 116.417 117.731C116.417 115.846 118.088 114.318 120.147 114.318H126.848C128.907 114.318 130.577 115.846 130.577 117.731C130.577 119.615 128.907 121.143 126.848 121.143Z" fill="#333333"/>
<path d="M171.037 222.588H163.578V152.063C163.578 144.774 165.505 137.527 169.151 131.107L175.77 134.254C172.629 139.784 171.037 145.776 171.037 152.064V222.588Z" fill="#333333"/>
<path opacity="0.44" d="M77.6049 139.505C68.1504 148.542 62.3385 160.805 62.3385 174.307V221.811H50.4536V174.307C50.4536 157.005 59.9951 141.735 74.5342 132.68C75.7649 134.853 76.7968 137.133 77.6049 139.505Z" fill="#333333"/>
<path d="M196.547 226H50.4536C48.3937 226 46.7241 224.472 46.7241 222.587V174.307C46.7241 156.501 56.3358 139.886 72.4357 129.859C78.2893 126.215 84.7197 123.598 91.551 122.084C91.6312 122.065 91.7132 122.047 91.7953 122.03L91.8699 122.014L93.7657 128.615C93.6694 128.639 93.5705 128.66 93.4711 128.681L93.3965 128.697C93.3859 128.699 93.3424 128.709 93.3319 128.711C87.3664 130.031 81.7484 132.316 76.6327 135.501C62.576 144.256 54.1838 158.762 54.1838 174.307V219.175H192.818V174.307C192.818 158.765 184.423 144.258 170.362 135.501C165.247 132.316 159.629 130.031 153.664 128.711C153.64 128.706 153.616 128.701 153.592 128.695L153.523 128.68C153.425 128.66 153.328 128.639 153.232 128.615L155.124 122.013L155.199 122.029C155.282 122.047 155.365 122.064 155.445 122.083C162.276 123.598 168.707 126.214 174.559 129.859C190.663 139.888 200.277 156.504 200.277 174.306V222.587C200.277 224.472 198.606 226 196.547 226Z" fill="#333333"/>
<path d="M83.4168 222.588H75.9577V152.063C75.9577 145.775 74.3651 139.783 71.2249 134.254L77.8436 131.107C81.4892 137.527 83.4168 144.773 83.4168 152.064V222.588Z" fill="#333333"/>
<path d="M205.24 226H41.9036C39.8442 226 38.174 224.472 38.174 222.588C38.174 220.703 39.8442 219.175 41.9036 219.175H205.24C207.299 219.175 208.97 220.703 208.97 222.588C208.97 224.472 207.299 226 205.24 226Z" fill="#333333"/>
<path d="M225.131 226H218.294C216.234 226 214.564 224.472 214.564 222.588C214.564 220.703 216.234 219.175 218.294 219.175H225.131C227.19 219.175 228.861 220.703 228.861 222.588C228.861 224.472 227.19 226 225.131 226Z" fill="#333333"/>
<path d="M28.7065 226H21.869C19.8096 226 18.1394 224.472 18.1394 222.588C18.1394 220.703 19.8096 219.175 21.869 219.175H28.7065C30.7659 219.175 32.4361 220.703 32.4361 222.588C32.4361 224.472 30.7665 226 28.7065 226Z" fill="#333333"/>
<path d="M211.453 44.3622H35.5416C33.4822 44.3622 31.812 42.8346 31.812 40.9497C31.812 39.0649 33.4822 37.5373 35.5416 37.5373H211.453C213.512 37.5373 215.182 39.0649 215.182 40.9497C215.182 42.8346 213.513 44.3622 211.453 44.3622Z" fill="#333333"/>
<path opacity="0.44" d="M88.5195 70.7146C91.6759 70.5684 94.4513 69.4718 96.6449 67.7861L178.508 55.5245V40.9498L93.9031 28.4373L90.7746 36.91C87.1495 25.8012 68.4861 -8.32304 68.4861 70.7327V83.5296C68.4861 100.791 77.9841 116.022 92.4548 125.088C92.5729 125.167 92.6972 125.241 92.8153 125.315C101.58 130.713 112.134 133.864 123.497 133.864C126.785 133.864 130.005 133.602 133.132 133.096C125.449 131.85 118.313 129.149 112.085 125.315C111.967 125.241 111.842 125.167 111.724 125.088C99.1158 117.189 90.2854 104.608 88.2205 90.0832L144.252 87.777L144.667 71.852L100.948 67.6809L87.8052 85.5685C87.776 84.8917 87.7555 84.2126 87.7555 83.5296V70.7327C88.0116 70.7322 88.2665 70.7265 88.5195 70.7146Z" fill="#333333"/>
<path d="M171.645 3.41248H75.3485L68.4861 40.9498H178.508L171.645 3.41248Z" fill="#665A52"/>
<path d="M119.181 100.099C117.122 100.099 115.451 98.5718 115.451 96.6869V73.7659H94.0747C92.0153 73.7659 90.3451 72.2382 90.3451 70.3534C90.3451 68.4686 92.0153 66.9409 94.0747 66.9409H119.181C121.24 66.9409 122.91 68.4686 122.91 70.3534V96.6869C122.91 98.5718 121.241 100.099 119.181 100.099Z" fill="#333333"/>
<path d="M152.919 73.7659H138.001C135.942 73.7659 134.271 72.2382 134.271 70.3534C134.271 68.4686 135.942 66.9409 138.001 66.9409H152.919C154.979 66.9409 156.649 68.4686 156.649 70.3534C156.649 72.2382 154.979 73.7659 152.919 73.7659Z" fill="#333333"/>
<path d="M104.555 85.8807H88.3597C82.9176 85.8807 78.5062 81.8443 78.5062 76.865V67.6808H118.703L113.813 79.9533C112.394 83.5125 108.696 85.8807 104.555 85.8807Z" fill="#333333"/>
<path d="M142.439 85.8807H158.635C164.077 85.8807 168.488 81.8443 168.488 76.865V67.6808H128.292L133.182 79.9533C134.599 83.5125 138.299 85.8807 142.439 85.8807Z" fill="#333333"/>
<path d="M104.555 89.2932H88.3591C80.8695 89.2932 74.776 83.7184 74.776 76.865V67.6809C74.776 65.796 76.4462 64.2684 78.5056 64.2684H118.702C119.919 64.2684 121.06 64.8121 121.758 65.7244C122.456 66.6366 122.623 67.8037 122.206 68.8496L117.316 81.122C115.369 86.0093 110.241 89.2932 104.555 89.2932ZM82.2358 71.0933V76.865C82.2358 79.9544 84.9826 82.4683 88.3597 82.4683H104.556C107.119 82.4683 109.431 80.9878 110.309 78.7845L113.373 71.0933H82.2358Z" fill="#333333"/>
<path d="M158.635 89.2932H142.438C136.753 89.2932 131.625 86.0093 129.678 81.122L124.788 68.8496C124.371 67.8031 124.538 66.6366 125.236 65.7244C125.934 64.8121 127.075 64.2684 128.292 64.2684H168.488C170.548 64.2684 172.218 65.796 172.218 67.6809V76.865C172.218 83.7184 166.124 89.2932 158.635 89.2932ZM133.621 71.0933L136.686 78.7845C137.564 80.9878 139.876 82.4683 142.439 82.4683H158.635C162.013 82.4683 164.759 79.955 164.759 76.865V71.0933H133.621Z" fill="#333333"/>
<path d="M128.292 71.0933H118.703C116.643 71.0933 114.973 69.5657 114.973 67.6809C114.973 65.796 116.643 64.2684 118.703 64.2684H128.292C130.351 64.2684 132.021 65.796 132.021 67.6809C132.021 69.5657 130.351 71.0933 128.292 71.0933Z" fill="#333333"/>
<path d="M168.491 71.0939C167.119 71.0939 165.799 70.3983 165.147 69.1977C164.232 67.5096 164.985 65.4616 166.83 64.6238L176.851 60.0738C178.696 59.2355 180.934 59.926 181.849 61.6134C182.765 63.3015 182.012 65.3495 180.166 66.1873L170.146 70.7373C169.614 70.9796 169.048 71.0939 168.491 71.0939Z" fill="#333333"/>
<path d="M78.5031 71.0939C77.9461 71.0939 77.3805 70.9796 76.8478 70.7373L66.8277 66.1873C64.9828 65.3496 64.2294 63.3021 65.145 61.6135C66.0613 59.9249 68.2984 59.2361 70.1439 60.0739L80.164 64.6239C82.0089 65.4616 82.7623 67.5091 81.8467 69.1977C81.1952 70.3983 79.875 71.0939 78.5031 71.0939Z" fill="#333333"/>
<path d="M162.9 82.4683C160.841 82.4683 159.171 80.9406 159.171 79.0558V73.0436C159.171 71.1588 160.841 69.6311 162.9 69.6311C164.959 69.6311 166.63 71.1588 166.63 73.0436V79.0558C166.63 80.9406 164.959 82.4683 162.9 82.4683Z" fill="white"/>
<path d="M108.821 82.4683C106.762 82.4683 105.092 80.9406 105.092 79.0558V73.0436C105.092 71.1588 106.762 69.6311 108.821 69.6311C110.881 69.6311 112.551 71.1588 112.551 73.0436V79.0558C112.551 80.9406 110.881 82.4683 108.821 82.4683Z" fill="white"/>
<path d="M141.99 134.361C139.93 134.361 138.26 132.833 138.26 130.948V104.128C138.26 101.906 136.285 100.099 133.857 100.099H113.137C110.709 100.099 108.734 101.906 108.734 104.128V130.948C108.734 132.833 107.064 134.361 105.005 134.361C102.945 134.361 101.275 132.833 101.275 130.948V104.128C101.275 98.1434 106.597 93.2744 113.137 93.2744H133.857C140.397 93.2744 145.719 98.1434 145.719 104.128V130.948C145.719 132.833 144.05 134.361 141.99 134.361Z" fill="#333333"/>
<path d="M104.471 158.396C103.579 158.396 102.699 158.104 102.004 157.543C101.308 156.982 84.9776 143.595 86.0691 125.86L93.5165 126.244C92.9632 135.229 98.2835 143.16 102.39 147.877C107.236 137.526 121.133 131.129 121.844 130.807C122.886 130.336 124.108 130.336 125.149 130.807C125.861 131.128 139.758 137.526 144.603 147.877C148.709 143.162 154.031 135.23 153.477 126.244L160.924 125.86C162.016 143.595 145.685 156.981 144.989 157.543C143.889 158.43 142.323 158.645 140.988 158.093C139.652 157.542 138.793 156.325 138.793 154.983C138.793 147.363 128.924 140.595 123.496 137.74C118.071 140.593 108.199 147.362 108.199 154.983C108.199 156.324 107.341 157.541 106.004 158.093C105.513 158.297 104.99 158.396 104.471 158.396Z" fill="#333333"/>
<path d="M127.229 133.866H119.77V222.588H127.229V133.866Z" fill="#333333"/>
<path d="M111.936 173.555C111.693 173.555 111.445 173.533 111.208 173.493C110.972 173.447 110.736 173.379 110.512 173.294C110.282 173.208 110.071 173.106 109.866 172.981C109.661 172.856 109.468 172.714 109.3 172.56C109.126 172.401 108.971 172.224 108.834 172.037C108.697 171.855 108.585 171.656 108.492 171.451C108.399 171.246 108.324 171.03 108.281 170.814C108.231 170.592 108.206 170.365 108.206 170.143C108.206 169.921 108.231 169.699 108.281 169.477C108.324 169.261 108.399 169.045 108.492 168.84C108.585 168.636 108.697 168.437 108.834 168.249C108.971 168.061 109.126 167.891 109.3 167.731C109.468 167.572 109.661 167.43 109.866 167.305C110.071 167.185 110.282 167.077 110.512 166.992C110.736 166.907 110.972 166.844 111.208 166.799C112.42 166.577 113.707 166.941 114.571 167.731C114.745 167.891 114.901 168.061 115.037 168.249C115.174 168.437 115.286 168.636 115.379 168.84C115.472 169.045 115.547 169.261 115.591 169.477C115.64 169.699 115.665 169.921 115.665 170.143C115.665 170.365 115.64 170.592 115.591 170.814C115.547 171.03 115.472 171.246 115.379 171.451C115.286 171.656 115.174 171.855 115.037 172.037C114.901 172.224 114.745 172.401 114.571 172.56C113.881 173.192 112.918 173.555 111.936 173.555Z" fill="#333333"/>
<path d="M111.936 210.837C111.693 210.837 111.445 210.814 111.208 210.774C110.972 210.729 110.736 210.66 110.512 210.575C110.282 210.49 110.071 210.387 109.866 210.262C109.661 210.137 109.468 209.995 109.3 209.841C109.126 209.682 108.971 209.506 108.834 209.318C108.697 209.136 108.585 208.937 108.492 208.732C108.399 208.528 108.324 208.311 108.281 208.095C108.231 207.874 108.206 207.646 108.206 207.424C108.206 207.202 108.231 206.981 108.281 206.759C108.324 206.543 108.399 206.327 108.492 206.122C108.585 205.917 108.697 205.718 108.834 205.53C108.971 205.343 109.126 205.172 109.3 205.013C109.468 204.853 109.661 204.711 109.866 204.586C110.071 204.467 110.282 204.359 110.512 204.273C110.736 204.188 110.972 204.125 111.208 204.08C112.42 203.858 113.707 204.222 114.571 205.013C114.745 205.172 114.901 205.343 115.037 205.53C115.174 205.718 115.286 205.917 115.379 206.122C115.472 206.327 115.547 206.543 115.591 206.759C115.64 206.981 115.665 207.202 115.665 207.424C115.665 207.646 115.64 207.874 115.591 208.095C115.547 208.311 115.472 208.528 115.379 208.732C115.286 208.937 115.174 209.136 115.037 209.318C114.901 209.506 114.745 209.682 114.571 209.841C113.881 210.473 112.918 210.837 111.936 210.837Z" fill="#333333"/>
<path d="M111.936 192.196C111.693 192.196 111.445 192.173 111.208 192.133C110.972 192.088 110.736 192.02 110.512 191.934C110.282 191.849 110.071 191.747 109.866 191.622C109.661 191.496 109.468 191.354 109.3 191.201C109.126 191.041 108.971 190.865 108.834 190.677C108.697 190.495 108.585 190.296 108.492 190.092C108.399 189.887 108.324 189.671 108.281 189.455C108.231 189.233 108.206 189.005 108.206 188.783C108.206 188.562 108.231 188.34 108.281 188.118C108.324 187.902 108.399 187.686 108.492 187.481C108.585 187.276 108.697 187.077 108.834 186.89C108.971 186.702 109.126 186.531 109.3 186.372C109.468 186.213 109.661 186.071 109.866 185.945C110.071 185.826 110.282 185.718 110.512 185.633C110.736 185.547 110.972 185.485 111.208 185.439C112.42 185.217 113.707 185.581 114.571 186.372C114.745 186.531 114.901 186.702 115.037 186.89C115.174 187.077 115.286 187.276 115.379 187.481C115.472 187.686 115.547 187.902 115.591 188.118C115.64 188.34 115.665 188.562 115.665 188.783C115.665 189.005 115.64 189.233 115.591 189.455C115.547 189.671 115.472 189.887 115.379 190.092C115.286 190.296 115.174 190.495 115.037 190.677C114.901 190.865 114.745 191.041 114.571 191.201C113.881 191.832 112.918 192.196 111.936 192.196Z" fill="#333333"/>
<path d="M156.891 178.207H139.487C137.427 178.207 135.757 176.679 135.757 174.795C135.757 172.91 137.427 171.382 139.487 171.382H156.891C158.951 171.382 160.621 172.91 160.621 174.795C160.621 176.679 158.951 178.207 156.891 178.207Z" fill="#333333"/>
<path opacity="0.44" d="M176.053 27.5217L178.508 40.9498H68.4861L70.9414 27.5274H176.022L176.053 27.5217Z" fill="#333333"/>
<path d="M176.022 30.9398H70.9414C68.8821 30.9398 67.2119 29.4121 67.2119 27.5273C67.2119 25.6425 68.8821 24.1148 70.9414 24.1148H176.022C178.081 24.1148 179.752 25.6425 179.752 27.5273C179.752 29.4121 178.082 30.9398 176.022 30.9398Z" fill="#333333"/>
<path d="M162.686 23.5729C160.896 23.5729 159.317 22.391 159.011 20.7229L157.123 10.3939C156.783 8.5352 158.155 6.77607 160.186 6.46496C162.219 6.15215 164.14 7.40908 164.48 9.26775L166.369 19.5968C166.709 21.4554 165.337 23.2146 163.305 23.5257C163.097 23.5569 162.89 23.5729 162.686 23.5729Z" fill="white"/>
<path opacity="0.44" d="M96.4827 3.41248L89.6203 40.9498H68.4861L75.3485 3.41248H96.4827Z" fill="#333333"/>
<path d="M178.508 44.3622H68.4861C67.389 44.3622 66.3484 43.9203 65.6392 43.1548C64.9306 42.3887 64.6266 41.3763 64.8075 40.3867L71.6699 2.84942C71.9708 1.20461 73.526 0 75.3485 0H171.646C173.468 0 175.024 1.20517 175.325 2.84942L182.187 40.3867C182.368 41.3763 182.064 42.3887 181.355 43.1548C180.647 43.9203 179.605 44.3622 178.508 44.3622ZM72.892 37.5373H174.104L172.375 28.0847L168.488 6.82496H78.5062L72.892 37.5373Z" fill="#333333"/>
</g>
<defs>
<clipPath id="clip0">
<rect width="247" height="226" fill="white"/>
</clipPath>
</defs>
</svg>
